<?xml version="1.0" encoding="utf-8"?>
<!-- Generator: Adobe Illustrator 27.0.0, SVG Export Plug-In . SVG Version: 6.00 Build 0)  -->
<svg version="1.1" id="Layer_1" xmlns="http://www.w3.org/2000/svg" xmlns:xlink="http://www.w3.org/1999/xlink" x="0px" y="0px"
	 viewBox="0 0 289.3 333.9" style="enable-background:new 0 0 289.3 333.9;" xml:space="preserve">
<style type="text/css">
	.st0{fill:none;stroke:#000000;stroke-width:12;stroke-linecap:round;stroke-linejoin:round;stroke-miterlimit:10;}
</style>
<path class="st0" d="M120.5,34.5C61.3,58,8.4,109,40.1,127.5C87,154.7,248.6,70.3,224.5,29.6C203.4-6.2,87.9,59.1,111.7,224.8
	c17.6,122.5-21.5,95-25.9,57.6c-3.6-30.2,0.2-47.9,4.4-63.3c8.9-32,36.6-54.2,40.4-21.1c4.9,43,6.1,53.1,6.1,53.1
	s-9.3-77.5,10.1-78.4c14-0.7,5.9,49.7,15.6,52.6c15.8,3.9,12.1-66.9,105.7-52.4"/>
</svg>
