<?xml version="1.0" encoding="utf-8"?>
<!-- Generator: Adobe Illustrator 27.0.0, SVG Export Plug-In . SVG Version: 6.00 Build 0)  -->
<svg version="1.1" id="Layer_1" xmlns="http://www.w3.org/2000/svg" xmlns:xlink="http://www.w3.org/1999/xlink" x="0px" y="0px"
	 viewBox="0 0 1080 629.72" style="enable-background:new 0 0 1080 629.72;" xml:space="preserve">
<style type="text/css">
	.st0{opacity:0.1;}
	.st1{fill:#9DB7DE;}
	.st2{fill:#ABB4DC;}
	.st3{fill:#2354FA;}
	.st4{fill:#2C5BFA;}
	.st5{fill:#95C4D7;}
	.st6{fill:#B0B9D7;}
	.st7{fill:#48D3FD;}
	.st8{fill:#4DA2DB;}
	.st9{fill:#9AC7D9;}
	.st10{fill:#799EFB;}
	.st11{fill:#ABE9E1;}
	.st12{fill:#B7ECE5;}
	.st13{fill:#5E96F9;}
	.st14{fill:#2656FA;}
	.st15{fill:#70A2FA;}
	.st16{fill:#669BFA;}
	.st17{fill:#9EE1F2;}
	.st18{fill:#95DBE6;}
	.st19{fill:#A0AACF;}
	.st20{fill:#86CDEB;}
	.st21{fill:#95C9DE;}
	.st22{fill:#97A2D4;}
	.st23{fill:#A7E4F3;}
	.st24{fill:#ABC1E7;}
	.st25{fill:#6299F9;}
	.st26{fill:#8FC6DC;}
	.st27{fill:#ADCAFE;}
	.st28{fill:#4770FB;}
	.st29{fill:#6A9EFA;}
	.st30{fill:#99E0F1;}
	.st31{fill:#6691FB;}
</style>
<g class="st0">
	<g>
		<g>
			<g>
				<path class="st1" d="M-21.56,446.25l1.11,0.4c-37.9,98.91-5.08,218.62,83.62,304.98c81.86,79.7,185.26,103.92,263.41,61.7
					c47.64-25.74,85.07-73.86,111.23-143.02c29.81-78.79,44.1-183.3,42.5-310.65c-1.34-106.56,3.45-188.23,14.24-242.75
					c9.66-48.78,24.47-77.38,44.02-85.02c52.28-20.41,129.05,110.55,185.11,206.18c31.79,54.23,59.24,101.06,69.18,96.81
					c3.9-1.67,5.22-11.74,3.9-29.94c-1.64-22.6,0.59-35.14,6.82-38.31c13.04-6.63,41.47,28.88,77.47,73.85
					c55.24,69,130.89,163.49,184.62,140.29c18.6-8.03,33.75-29.89,45.03-64.96c12.61-39.22,20.8-96.25,24.34-169.49l1.2-0.04
					c-3.55,73.37-11.76,130.52-24.41,169.86c-11.41,35.48-26.82,57.63-45.79,65.82c-24.25,10.47-54.41-0.95-92.22-34.93
					c-32.48-29.19-65.01-69.82-93.71-105.66c-34.28-42.81-63.88-79.79-76.09-73.58c-5.6,2.85-7.64,15.28-6.06,36.95
					c1.41,19.4-0.09,29.35-4.73,31.34c-10.85,4.63-35.9-38.1-70.57-97.25C666.78,143.52,590.28,13.02,538.88,33.08
					c-40.61,15.86-59.91,125.69-57.38,326.44c1.61,127.52-12.72,232.22-42.59,311.17c-26.29,69.49-63.93,117.86-111.87,143.77
					c-40.49,21.88-87.69,26.65-136.48,13.79c-45.35-11.95-89.7-38.11-128.25-75.64c-40.64-39.56-71.68-89.6-87.42-140.9
					C-42.52,554.96-41.3,497.74-21.56,446.25z"/>
			</g>
		</g>
		<g>
			<g>
				<path class="st2" d="M-33.65,441.13l1.1,0.42c-45.22,112.96,9.54,224.02,75.86,290.3c85,84.93,194.03,111.06,277.78,66.57
					c48.47-25.75,86.61-73.27,113.36-141.25c30.47-77.41,45.27-179.83,44-304.41c-1.06-104.12,4.02-184.07,15.1-237.61
					c9.92-47.93,24.99-76.23,44.81-84.12c53.37-21.25,131.54,107.09,188.62,200.8c32.32,53.06,60.23,98.88,70.35,94.46
					c3.96-1.72,5.31-11.6,4.02-29.37c-1.6-22.02,0.66-34.31,6.92-37.57c13.23-6.89,42.21,27.85,78.9,71.84
					c56.4,67.62,133.65,160.23,188.59,136.06c18.81-8.27,34.18-29.95,45.68-64.43c12.84-38.52,21.28-94.28,25.08-165.72l1.2-0.04
					c-3.81,71.56-12.27,127.45-25.15,166.09c-11.63,34.88-27.25,56.84-46.43,65.28c-24.78,10.9-55.59,0.11-94.21-32.99
					c-33.18-28.43-66.38-68.24-95.68-103.36c-34.94-41.88-65.11-78.05-77.53-71.59c-5.63,2.93-7.71,15.12-6.18,36.21
					c1.38,18.94-0.16,28.71-4.84,30.75c-11.02,4.81-36.49-37.01-71.74-94.88C669.09,139.2,591.2,11.31,538.7,32.22
					c-19.36,7.71-34.16,35.67-43.97,83.1c-11.06,53.45-16.13,133.29-15.07,237.32c1.27,124.76-13.57,227.35-44.1,304.94
					c-26.89,68.31-65.24,116.08-114.01,141.98c-42.98,22.83-93.09,27.52-144.91,13.57c-47.51-12.8-95.17-41.32-134.18-80.3
					C3.31,693.7-25.02,647.02-39.46,597.83C-55.22,544.17-53.21,489.99-33.65,441.13z"/>
			</g>
		</g>
		<g>
			<g>
				<path class="st3" d="M-45.96,436.17l1.09,0.44C-89.3,542.89-38.78,648.83,23.3,712.53c71.98,73.85,190.25,124.55,292.21,71.32
					c49.32-25.75,88.2-72.68,115.55-139.51c31.15-76.07,46.46-176.44,45.53-298.33c-0.78-101.72,4.58-179.96,15.94-232.55
					c10.17-47.1,25.51-75.11,45.59-83.27c54.5-22.13,134.12,103.64,192.26,195.48c32.86,51.91,61.25,96.75,71.55,92.15
					c4-1.78,5.39-11.47,4.13-28.8c-1.56-21.44,0.74-33.49,7.02-36.83c13.44-7.15,42.98,26.83,80.39,69.85
					c57.61,66.26,136.52,157.01,192.7,131.85c19.02-8.52,34.6-30.03,46.31-63.92c13.07-37.83,21.75-92.33,25.8-161.99l1.2-0.03
					c-4.06,69.78-12.77,124.41-25.88,162.37c-11.84,34.29-27.67,56.07-47.05,64.75c-25.32,11.34-56.81,1.19-96.27-31.03
					c-33.9-27.68-67.81-66.68-97.72-101.08c-35.62-40.97-66.39-76.35-79.02-69.63c-5.74,3.05-7.8,14.66-6.29,35.49
					c1.34,18.48-0.23,28.08-4.95,30.18c-11.2,5-37.1-35.92-72.95-92.55C671.44,134.94,592.1,9.61,538.47,31.39
					c-19.64,7.97-34.69,35.65-44.76,82.26c-11.34,52.49-16.69,130.63-15.91,232.24c0.93,122.07-14.42,222.63-45.64,298.88
					c-27.49,67.13-66.58,114.32-116.2,140.23c-45.54,23.77-98.64,28.38-153.56,13.33C112,784.51,62.29,754.39,22.43,713.49
					c-37.01-37.97-63.42-82.6-76.38-129.06C-68.08,533.75-65.32,482.49-45.96,436.17z"/>
			</g>
		</g>
		<g>
			<g>
				<path class="st4" d="M-58.51,431.41l1.08,0.46c-37.04,84.92-14.38,182.82,60.62,261.88c71.65,75.53,198.16,131.49,306.63,75.88
					c50.19-25.73,89.85-72.11,117.81-137.79c31.84-74.76,47.68-173.15,47.08-292.43c-0.5-99.35,5.14-175.91,16.78-227.56
					c10.43-46.28,26.02-74.02,46.36-82.44c55.65-23.05,136.79,100.22,196.03,190.22c33.43,50.79,62.31,94.66,72.8,89.87
					c4.04-1.84,5.47-11.34,4.24-28.23c-1.52-20.87,0.81-32.68,7.11-36.11c13.64-7.42,43.77,25.81,81.91,67.89
					c58.87,64.93,139.49,153.86,196.95,127.67c19.22-8.76,35-30.1,46.92-63.43c13.29-37.16,22.21-90.42,26.51-158.31l1.2-0.02
					c-4.31,68.03-13.26,121.42-26.59,158.7c-12.05,33.7-28.08,55.31-47.65,64.23c-25.88,11.8-58.06,2.29-98.39-29.06
					c-34.65-26.94-69.29-65.14-99.84-98.84c-36.33-40.07-67.7-74.68-80.55-67.69c-5.77,3.14-7.86,14.52-6.39,34.77
					c1.31,18.03-0.29,27.44-5.05,29.61c-11.37,5.19-37.72-34.84-74.19-90.25C673.84,130.74,592.99,7.9,538.2,30.6
					c-19.9,8.25-35.23,35.65-45.54,81.45c-11.61,51.54-17.25,128-16.75,227.24c0.6,119.47-15.28,218.05-47.19,292.99
					c-28.11,66-67.97,112.61-118.45,138.49c-48.16,24.69-104.32,29.22-162.39,13.1C94.51,769.07,42.82,737.4,2.31,694.7
					c-34.84-36.73-59.35-79.32-70.87-123.17C-81.12,523.73-77.64,475.27-58.51,431.41z"/>
			</g>
		</g>
		<g>
			<g>
				<path class="st5" d="M-71.29,426.82l1.07,0.48c-36.37,79.9-16.45,172.71,53.28,248.28c75.68,82.01,210.22,135.89,320.95,80.18
					c51.1-25.71,91.53-71.51,120.14-136.11c32.55-73.49,48.92-169.95,48.66-286.7c-0.23-97.01,5.7-171.91,17.6-222.63
					c10.68-45.48,26.53-72.95,47.11-81.65c56.82-24.01,139.54,96.8,199.93,185.02c34.02,49.69,63.4,92.6,74.07,87.62
					c4.08-1.9,5.54-11.22,4.35-27.68c-1.48-20.3,0.88-31.88,7.19-35.4c13.84-7.7,44.57,24.8,83.48,65.95
					c60.18,63.63,142.59,150.77,201.35,123.51c19.41-9,35.4-30.18,47.51-62.94c13.5-36.49,22.65-88.53,27.2-154.68l1.2-0.02
					c-4.56,66.29-13.74,118.46-27.29,155.08c-12.26,33.13-28.48,54.57-48.23,63.73c-26.45,12.27-59.35,3.41-100.58-27.09
					c-35.43-26.2-70.82-63.62-102.04-96.64c-37.06-39.19-69.07-73.03-82.12-65.77c-5.79,3.22-7.91,14.36-6.48,34.07
					c1.28,17.59-0.36,26.82-5.14,29.05c-11.55,5.39-38.36-33.78-75.46-87.98c-60.18-87.91-142.6-208.3-198.58-184.65
					c-20.16,8.52-35.74,35.66-46.31,80.67c-11.88,50.62-17.79,125.41-17.57,222.31c0.27,116.95-16.14,213.61-48.78,287.28
					c-28.77,64.92-69.39,110.94-120.78,136.79c-50.85,25.58-110.1,30.04-171.36,12.89c-56.37-15.78-109.97-48.91-150.92-93.29
					C-87.9,600.57-107.89,507.23-71.29,426.82z"/>
			</g>
		</g>
		<g>
			<g>
				<path class="st6" d="M-84.31,422.4l1.06,0.5c-36.23,76.33-19.39,162.04,46.21,235.17C40.06,744,179.93,800.5,298.08,742.21
					c52.04-25.68,93.28-70.93,122.54-134.45c33.29-72.26,50.2-166.85,50.26-281.15c0.05-94.69,6.25-167.96,18.42-217.77
					c10.92-44.7,27.02-71.91,47.85-80.89c58.03-25.01,142.38,93.4,203.97,179.86c34.62,48.61,64.53,90.59,75.39,85.4
					c4.12-1.96,5.61-11.09,4.45-27.14c-1.44-19.74,0.94-31.09,7.27-34.69c14.03-7.98,45.4,23.79,85.1,64.02
					c61.53,62.35,145.81,147.73,205.91,119.36c19.59-9.25,35.76-30.26,48.08-62.47c13.7-35.82,23.08-86.66,27.87-151.09l1.2-0.01
					c-4.81,64.57-14.22,115.54-27.97,151.49c-12.45,32.56-28.86,53.83-48.78,63.24c-27.03,12.76-60.68,4.55-102.85-25.09
					c-36.23-25.47-72.41-62.13-104.33-94.47c-37.82-38.32-70.48-71.41-83.75-63.87c-5.81,3.3-7.95,14.22-6.56,33.36
					c1.23,16.91-0.48,26.24-5.23,28.51c-11.72,5.59-39.01-32.72-76.78-85.74C678.76,122.48,594.71,4.48,537.52,29.13
					c-20.41,8.8-36.25,35.69-47.06,79.93c-12.14,49.7-18.33,122.86-18.38,217.44c-0.06,114.51-17.01,209.3-50.39,281.74
					c-29.41,63.84-70.86,109.3-123.19,135.12c-53.58,26.44-115.97,30.84-180.42,12.72C58.65,739.38,3.25,704.9-37.93,658.99
					c-30.54-34.04-51.35-72.65-60.18-111.65C-107.87,504.28-103.22,462.24-84.31,422.4z"/>
			</g>
		</g>
		<g>
			<g>
				<path class="st7" d="M-97.85,418.72c0.09-0.19,0.19-0.38,0.28-0.57l1.05,0.52c-0.09,0.18-0.19,0.38-0.28,0.56
					c-35.22,71.74-20.75,152.62,39.74,222.03C19.2,728.74,167.44,789.22,291.99,729c80.21-38.78,176.02-141.15,176.95-408.59
					c0.32-92.4,6.79-164.06,19.21-212.98c11.16-43.93,27.5-70.89,48.57-80.15c59.26-26.06,145.31,90,208.14,174.75
					c35.25,47.55,65.7,88.61,76.75,83.22c4.15-2.02,5.68-10.97,4.54-26.6c-1.39-19.19,1-30.31,7.33-33.99
					c14.23-8.28,46.24,22.79,86.76,62.12c62.94,61.09,149.15,144.75,210.62,115.24c19.76-9.49,36.12-30.35,48.62-62
					c13.89-35.17,23.49-84.82,28.53-147.55l1.2,0c-5.05,62.88-14.68,112.66-28.63,147.96c-12.64,31.99-29.23,53.11-49.31,62.75
					c-27.64,13.27-62.04,5.72-105.18-23.09c-37.06-24.75-74.06-60.65-106.7-92.33c-38.6-37.46-71.94-69.82-85.41-61.98
					c-5.81,3.38-7.99,14.07-6.64,32.67c1.2,16.49-0.54,25.63-5.32,27.96c-11.9,5.8-39.68-31.67-78.13-83.53
					C681.29,118.42,595.54,2.76,537.1,28.46c-20.66,9.09-36.74,35.74-47.78,79.21c-12.4,48.81-18.85,120.35-19.17,212.64
					c-0.39,112.14-17.91,205.13-52.05,276.38c-30.11,62.83-72.38,107.7-125.69,133.47c-56.36,27.25-121.9,31.6-189.55,12.58
					c-61.6-17.31-120.21-53.97-160.82-100.56C-118.8,572.39-133.32,490.97-97.85,418.72z"/>
			</g>
		</g>
		<g>
			<g>
				<path class="st8" d="M-112.78,417.44c0.55-1.13,1.11-2.24,1.69-3.36l1.04,0.54c-34.98,67.74-22.87,144.49,33.09,210.6
					c78.01,92.16,235.02,151.36,362.73,90.9c81.73-38.69,179.5-139.8,181.22-401.77c0.59-90.15,7.32-160.21,20-208.25
					c11.39-43.16,27.97-69.89,49.26-79.44c60.53-27.14,148.34,86.61,212.46,169.67c35.9,46.51,66.91,86.67,78.15,81.06
					c4.18-2.09,5.74-10.86,4.63-26.07c-1.35-18.64,1.06-29.54,7.38-33.29c14.43-8.58,47.11,21.79,88.47,60.23
					c64.41,59.85,152.62,141.82,215.49,111.12c19.92-9.73,36.46-30.44,49.14-61.54c14.08-34.53,23.89-82.99,29.17-144.06l1.2,0.01
					c-5.29,61.2-15.14,109.81-29.27,144.47c-12.82,31.44-29.58,52.4-49.81,62.27c-28.25,13.79-63.44,6.9-107.59-21.06
					c-37.92-24.03-75.77-59.19-109.15-90.21c-41.04-38.13-73.45-68.25-87.13-60.12c-5.82,3.46-8.01,13.92-6.7,31.98
					c1.17,16.06-0.6,25.03-5.4,27.43c-12.08,6.02-40.37-30.63-79.53-81.35C683.86,114.41,596.34,1.05,536.63,27.83
					c-20.9,9.37-37.22,35.79-48.49,78.52c-12.65,47.93-19.36,117.87-19.95,207.9c-0.72,109.86-18.77,201.06-53.74,271.19
					c-30.8,61.77-73.95,106.14-128.27,131.85c-128.2,60.7-285.78,1.31-364.06-91.16C-133.26,560.71-145.88,484.86-112.78,417.44z"/>
			</g>
		</g>
		<g>
			<g>
				<path class="st9" d="M-128.08,416.42c1.03-2.09,2.09-4.17,3.21-6.24l1.03,0.57c-34.83,64.82-25.2,135.57,27.09,199.21
					c76.66,93.31,242.25,155.63,376.11,93.62C362.67,664.99,462.5,565.11,465,308.41c0.86-87.92,7.84-156.41,20.77-203.58
					c11.62-42.42,28.42-68.92,49.94-78.76c61.82-28.28,151.47,83.22,216.94,164.64c36.57,45.48,68.16,84.77,79.58,78.94
					c4.2-2.15,5.79-10.74,4.72-25.55c-1.32-18.11,1.12-28.77,7.42-32.6c14.62-8.88,47.99,20.79,90.23,58.36
					c65.93,58.63,156.22,138.93,220.55,107.01c20.07-9.96,36.76-30.51,49.63-61.08c14.26-33.89,24.28-81.2,29.78-140.61l1.19,0.02
					c-5.52,59.55-15.58,107-29.89,141.03c-13,30.9-29.92,51.69-50.29,61.8c-65.02,32.26-155.63-48.32-221.79-107.16
					c-41.9-37.27-75-66.7-88.89-58.27c-5.82,3.53-8.02,13.77-6.75,31.29c1.14,15.64-0.66,24.44-5.47,26.9
					c-12.25,6.25-42.57-31.46-80.96-79.2C686.47,110.45,597.12-0.67,536.1,27.24c-21.13,9.67-37.68,35.86-49.18,77.85
					c-12.89,47.06-19.86,115.43-20.72,203.23c-1.05,107.66-19.72,197.2-55.48,266.17c-31.53,60.79-75.59,104.61-130.96,130.26
					c-61.1,28.3-134.93,32.73-207.87,12.47C4.21,698.41-57.59,659.64-97.68,610.85c-24.49-29.81-40.27-62.87-45.63-95.6
					C-148.84,481.49-143.72,448.27-128.08,416.42z"/>
			</g>
		</g>
		<g>
			<g>
				<path class="st10" d="M-143.51,415.21c1.44-2.94,2.97-5.85,4.6-8.76l1.02,0.59c-34.24,61.18-26.59,128.11,21.49,188.46
					c76.95,96.57,251.7,158.14,389.18,95.87c84.96-38.48,186.93-137.16,190.21-388.76c1.12-85.71,8.36-152.65,21.52-198.98
					c11.84-41.68,28.86-67.96,50.59-78.09c63.14-29.45,154.71,79.84,221.58,159.64c38.8,46.31,69.45,82.89,81.06,76.83
					c4.23-2.2,5.84-10.63,4.79-25.03c-1.28-17.57,1.16-28.01,7.46-31.92c14.82-9.19,48.89,19.8,92.04,56.5
					c67.51,57.43,159.96,136.08,225.76,102.91c20.21-10.19,37.05-30.57,50.09-60.63c14.42-33.26,24.64-79.42,30.38-137.19l1.19,0.03
					c-5.75,57.93-16.01,104.23-30.49,137.62c-13.16,30.35-30.23,50.99-50.73,61.32c-66.48,33.51-159.25-45.41-226.99-103.03
					c-42.81-36.42-76.62-65.18-90.71-56.44c-5.81,3.6-8.03,13.62-6.8,30.62c1.11,15.23-0.7,23.86-5.54,26.38
					c-12.42,6.48-43.32-30.39-82.43-77.07C689.12,106.54,597.86-2.39,535.5,26.7c-21.35,9.96-38.12,35.93-49.85,77.2
					c-13.13,46.2-20.35,113.02-21.47,198.61c-1.38,105.53-20.64,193.43-57.27,261.32c-32.28,59.83-77.29,103.13-133.76,128.71
					c-63.91,28.94-140.97,33.38-217,12.5c-70.7-19.42-133.95-59.03-173.51-108.67C-163.48,538.46-172.61,474.49-143.51,415.21z"/>
			</g>
		</g>
		<g>
			<g>
				<path class="st11" d="M-159.17,413.98c1.83-3.72,3.81-7.42,5.95-11.1l1.01,0.61c-33.68,57.84-27.88,121.14,16.29,178.32
					c76.59,99.15,256.37,162.05,401.91,97.67c86.7-38.36,190.91-135.86,194.98-382.56c1.38-83.53,8.86-148.94,22.25-194.42
					c12.06-40.96,29.29-67.02,51.21-77.45c64.5-30.68,158.06,76.45,226.37,154.67c39.55,45.28,70.79,81.05,82.58,74.76
					c4.24-2.27,5.88-10.51,4.86-24.52c-1.24-17.04,1.2-27.26,7.48-31.24c15-9.51,49.82,18.81,93.9,54.66
					c69.15,56.24,163.85,133.28,231.16,98.82c20.33-10.41,37.34-30.65,50.52-60.17c14.58-32.63,24.99-77.66,30.95-133.83l1.19,0.04
					c-5.97,56.32-16.43,101.49-31.07,134.26c-13.33,29.82-30.53,50.29-51.15,60.85c-67.99,34.8-163-42.49-232.38-98.92
					c-43.74-35.58-78.28-63.68-92.57-54.62c-5.79,3.67-8.03,13.47-6.83,29.95c1.08,14.82-0.75,23.28-5.6,25.86
					c-12.6,6.72-44.09-29.33-83.95-74.98C691.8,102.67,598.56-4.1,534.84,26.21c-21.56,10.25-38.55,36.01-50.48,76.57
					c-13.35,45.36-20.82,110.64-22.19,194.04c-1.71,103.48-21.6,189.84-59.11,256.65c-33.07,58.9-79.06,101.69-136.69,127.18
					c-66.73,29.52-147.02,33.99-226.08,12.6C-33.43,673.3-98,633-136.88,582.67C-178.57,528.7-186.3,469.24-159.17,413.98z"/>
			</g>
		</g>
		<g>
			<g>
				<path class="st12" d="M-175.07,412.76c2.19-4.46,4.61-8.89,7.28-13.29l0.99,0.63c-33.15,54.71-29.07,114.65,11.47,168.81
					c74.35,99.33,262.79,164.42,414.32,98.99c88.53-38.22,195.07-134.58,199.93-376.55c1.63-81.37,9.36-145.27,22.97-189.93
					c12.26-40.25,29.69-66.1,51.81-76.82C599.57-7.34,695.2,97.66,765.03,174.33c40.32,44.27,72.17,79.24,84.14,72.71
					c4.26-2.32,5.92-10.4,4.93-24.01c-1.2-16.53,1.25-26.53,7.49-30.57c15.19-9.83,50.76,17.82,95.8,52.83
					c70.85,55.07,167.87,130.5,236.74,94.72c42.93-22.31,70.66-86.31,82.42-190.22l1.19,0.05c-6.19,54.74-16.83,98.79-31.62,130.94
					c-13.47,29.3-30.81,49.6-51.54,60.37c-69.53,36.12-166.87-39.55-237.95-94.8c-44.7-34.75-80-62.19-94.49-52.81
					c-5.77,3.74-8.01,13.31-6.85,29.28c1.05,14.41-0.8,22.7-5.65,25.35c-12.77,6.97-44.87-28.28-85.51-72.9
					C694.54,98.85,599.22-5.81,534.1,25.77c-21.76,10.55-38.95,36.11-51.09,75.96c-13.57,44.53-21.27,108.3-22.9,189.54
					c-2.04,101.51-22.57,186.33-61.02,252.14c-33.89,57.99-80.91,100.28-139.74,125.68c-152.01,65.63-341.06,0.33-415.64-99.33
					C-193.91,519.51-200.37,464.28-175.07,412.76z"/>
			</g>
		</g>
		<g>
			<g>
				<path class="st13" d="M-191.45,411.94c2.59-5.27,5.52-10.5,8.79-15.7l0.98,0.65c-32.65,51.82-30.16,108.6,7.03,159.91
					c36.98,51.02,103.71,92.13,183.08,112.78c84.75,22.05,171.16,17.47,243.31-12.91c90.44-38.08,199.44-133.31,205.1-370.76
					c1.89-79.25,9.85-141.65,23.66-185.48c12.46-39.55,30.09-65.19,52.38-76.21c67.31-33.27,165.09,69.65,236.48,144.8
					c41.11,43.28,73.59,77.46,85.75,70.68c4.27-2.38,5.95-10.29,4.98-23.51c-1.16-16.02,1.29-25.8,7.49-29.9
					c15.37-10.16,51.73,16.84,97.76,51.02c72.61,53.92,172.05,127.76,242.5,90.62c43.12-22.73,71.15-85.46,83.32-186.47l1.19,0.06
					c-6.41,53.18-17.22,96.13-32.16,127.67c-13.61,28.74-31.08,48.91-51.9,59.88c-71.1,37.48-170.86-36.6-243.7-90.69
					c-45.69-33.92-81.77-60.72-96.45-51.02c-5.74,3.8-7.99,13.15-6.86,28.62c1.02,14.01-0.84,22.14-5.7,24.85
					c-12.94,7.22-45.67-27.23-87.11-70.85C697.31,95.07,599.85-7.52,533.3,25.38c-21.95,10.85-39.33,36.2-51.67,75.37
					c-13.77,43.71-21.71,105.98-23.6,185.09c-2.37,99.62-23.56,183-63,247.81c-34.75,57.12-82.84,98.91-142.94,124.22
					c-72.38,30.47-159.05,35.08-244.04,12.96c-79.61-20.71-146.56-61.97-183.68-113.19c-18.04-24.9-28.12-50.95-29.94-77.42
					C-207.16,457.16-202.41,434.27-191.45,411.94z"/>
			</g>
		</g>
		<g>
			<g>
				<path class="st14" d="M-207.96,410.9c2.92-5.95,6.3-11.86,10.15-17.72l0.96,0.67c-41.26,62.97-21.18,117.19,2.94,151.59
					c35.41,50.49,104.93,92.92,185.97,113.5c87.63,22.26,177.18,17.58,252.16-13.17c92.47-37.93,204.05-132.07,210.51-365.17
					c2.13-77.14,10.32-138.07,24.33-181.1c12.65-38.86,30.45-64.29,52.91-75.61c68.76-34.63,168.78,66.24,241.81,139.9
					c41.94,42.3,75.06,75.71,87.4,68.67c4.27-2.44,5.97-10.18,5.03-23.02c-1.13-15.51,1.32-25.08,7.48-29.23
					c15.55-10.49,52.72,15.86,99.77,49.21c74.43,52.77,176.38,125.03,248.46,86.51c43.27-23.13,71.59-84.61,84.16-182.76l1.19,0.07
					c-6.61,51.64-17.6,93.51-32.67,124.44c-0.1,0.2-0.2,0.4-0.29,0.6c-13.71,27.92-31.17,47.7-51.92,58.79
					c-72.71,38.86-174.97-33.63-249.64-86.56c-46.71-33.11-83.6-59.27-98.48-49.23c-5.7,3.85-7.95,12.99-6.86,27.96
					c0.99,13.61-0.88,21.58-5.74,24.34c-13.11,7.47-46.49-26.2-88.76-68.83C700.12,91.34,600.42-9.22,532.4,25.04
					c-22.12,11.14-39.68,36.3-52.21,74.78c-13.97,42.89-22.13,103.69-24.26,180.7c-2.71,97.81-24.59,179.78-65.05,243.65
					c-35.65,56.28-84.88,97.59-146.31,122.79c-75.21,30.85-165.02,35.55-252.88,13.23c-81.28-20.65-151.02-63.24-186.58-113.93
					c-16.62-23.69-25.6-48.43-26.7-73.51C-222.5,451.92-217.92,431.19-207.96,410.9z"/>
			</g>
		</g>
		<g>
			<g>
				<path class="st15" d="M-224.82,410.02c3.25-6.62,7.1-13.21,11.56-19.76l0.95,0.69c-32.26,47.35-32.54,97.08-0.82,143.84
					c69.08,101.83,280.5,167.86,449.54,100.39c94.61-37.77,208.93-130.85,216.18-359.8c2.38-75.06,10.79-134.53,24.98-176.76
					c12.83-38.17,30.8-63.41,53.41-75.01c70.24-36.05,172.59,62.82,247.31,135.01c42.79,41.34,76.58,73.98,89.1,66.69
					c4.27-2.49,5.98-10.07,5.07-22.52c-1.09-15.02,1.35-24.36,7.46-28.57c15.73-10.83,53.73,14.88,101.84,47.43
					c76.33,51.63,180.86,122.34,254.6,82.41c43.4-23.5,71.98-83.76,84.95-179.09l1.19,0.08c-13.03,95.81-41.85,156.42-85.67,180.15
					c-74.36,40.27-179.21-30.65-255.77-82.44c-47.77-32.31-85.49-57.83-100.55-47.46c-5.66,3.9-7.91,12.83-6.85,27.3
					c0.96,13.22-0.92,21.02-5.77,23.84c-13.27,7.74-47.33-25.16-90.45-66.82C702.97,87.65,600.95-10.91,531.43,24.76
					c-22.27,11.43-40.01,36.4-52.72,74.2c-14.15,42.09-22.53,101.42-24.91,176.35c-3.05,96.08-25.66,176.71-67.2,239.67
					c-36.59,55.46-87.01,96.3-149.85,121.39c-78.05,31.15-170.95,35.96-261.61,13.54c-84.06-20.79-154.81-63.53-189.26-114.31
					C-241.77,494.83-245.33,451.8-224.82,410.02z"/>
			</g>
		</g>
		<g>
			<g>
				<path class="st16" d="M-241.85,408.99c3.53-7.2,7.82-14.36,12.85-21.48l0.93,0.72c-31.88,45.02-33.35,92.27-4.27,136.63
					c33.13,50.53,104.57,93.11,191.09,113.9c91.81,22.06,190.06,17.02,269.54-13.83c96.88-37.6,214.07-129.65,222.14-354.63
					c2.62-73.01,11.24-131.04,25.61-172.47c13-37.5,31.13-62.54,53.87-74.42c71.76-37.51,176.52,59.38,253.02,130.13
					c43.67,40.39,78.16,72.29,90.85,64.72c4.27-2.54,5.99-9.96,5.11-22.04c-1.06-14.53,1.37-23.66,7.43-27.91
					c15.89-11.16,54.76,13.91,103.96,45.65c78.29,50.5,185.5,119.67,260.95,78.3c43.51-23.86,72.33-82.88,85.68-175.45l1.19,0.09
					c-13.41,93.03-42.48,152.41-86.39,176.49c-76.05,41.7-183.58-27.67-262.1-78.32c-48.85-31.52-87.44-56.41-102.68-45.71
					c-5.61,3.95-7.85,12.66-6.83,26.65c0.93,12.83-0.96,20.48-5.79,23.35c-13.44,8.01-48.19-24.14-92.19-64.83
					C705.85,84,601.42-12.59,530.37,24.54c-22.42,11.72-40.32,36.5-53.2,73.63c-14.33,41.3-22.91,99.19-25.53,172.06
					c-3.39,94.42-26.75,173.77-69.43,235.87c-37.59,54.68-89.26,95.06-153.59,120.03c-80.88,31.39-176.84,36.32-270.22,13.88
					c-86.77-20.85-158.45-63.6-191.73-114.36C-258.14,487.81-260.95,447.89-241.85,408.99z"/>
			</g>
		</g>
		<g>
			<g>
				<path class="st17" d="M-259.17,408.01c3.8-7.74,8.51-15.44,14.13-23.08l0.92,0.74c-31.54,42.88-34.11,87.81-7.44,129.92
					c31.91,50.38,104.2,92.85,193.35,113.61c94.42,21.99,195.76,16.81,278.04-14.2c99.29-37.43,219.52-128.47,228.42-349.67
					c2.86-70.99,11.68-127.59,26.21-168.24c13.17-36.83,31.44-61.67,54.3-73.84c73.31-39.01,180.58,55.93,258.91,125.26
					c44.57,39.45,79.78,70.61,92.64,62.78c4.32-2.63,6-9.68,5.13-21.55c-1.02-14.05,1.39-22.96,7.39-27.26
					c16.06-11.5,55.81,12.94,106.14,43.88c80.31,49.38,190.31,117,267.49,74.18c43.58-24.18,72.63-82,86.35-171.84l1.18,0.1
					c-13.79,90.3-43.08,148.46-87.06,172.86c-77.78,43.16-188.08-24.66-268.63-74.18c-49.98-30.73-89.45-55-104.87-43.96
					c-5.56,3.98-7.79,12.49-6.8,26c0.91,12.45-1,19.93-5.81,22.86c-13.6,8.28-49.07-23.12-93.98-62.87
					C708.78,80.39,601.83-14.26,529.23,24.37c-22.55,12-40.59,36.58-53.64,73.06c-14.49,40.51-23.28,96.98-26.13,167.82
					c-3.74,92.85-27.88,170.98-71.78,232.24c-38.64,53.93-91.64,93.86-157.53,118.7c-82.49,31.09-184.08,36.29-278.71,14.25
					c-89.42-20.83-161.95-63.48-194.02-114.09C-274.81,481.26-276.95,444.22-259.17,408.01z"/>
			</g>
		</g>
		<g>
			<g>
				<path class="st18" d="M-276.8,407.09c4.05-8.25,9.18-16.45,15.4-24.59l0.9,0.76c-31.24,40.91-34.82,83.68-10.35,123.69
					c30.66,50.12,103.72,92.38,195.44,113.03c96.94,21.83,201.33,16.52,286.4-14.59c101.86-37.25,225.32-127.33,235.06-344.95
					c3.09-68.99,12.1-124.18,26.78-164.05c13.32-36.16,31.72-60.81,54.68-73.25c74.89-40.57,184.77,52.47,265,120.39
					c45.51,38.53,81.45,68.96,94.48,60.86c4.3-2.67,5.99-9.57,5.15-21.07c-0.99-13.58,1.41-22.28,7.34-26.61
					c16.22-11.84,56.89,11.97,108.38,42.12c82.41,48.26,195.27,114.35,274.22,70.04c43.63-24.48,72.89-81.09,86.97-168.25l1.18,0.11
					c-14.15,87.62-43.65,144.56-87.66,169.27c-79.53,44.63-192.71-21.64-275.35-70.03c-51.14-29.95-91.53-53.6-107.12-42.22
					c-5.5,4.01-7.71,12.31-6.76,25.36c0.88,12.07-1.03,19.39-5.81,22.37c-13.75,8.55-49.97-22.1-95.81-60.92
					C711.74,76.83,602.18-15.92,527.98,24.27c-22.66,12.27-40.84,36.66-54.04,72.49c-14.64,39.73-23.62,94.78-26.7,163.62
					c-4.09,91.35-29.07,168.33-74.24,228.8c-39.75,53.2-94.16,92.71-161.72,117.41c-85.27,31.18-189.89,36.52-287.04,14.64
					c-92-20.72-165.31-63.16-196.12-113.53C-291.78,475.16-293.35,440.81-276.8,407.09z"/>
			</g>
		</g>
		<g>
			<g>
				<path class="st19" d="M-294.73,406.22c4.28-8.72,9.83-17.4,16.65-26.01l0.89,0.78c-30.98,39.08-35.49,79.86-13.03,117.91
					c29.38,49.77,103.15,91.71,197.35,112.19c99.37,21.6,206.75,16.14,294.59-14.99c104.59-37.06,231.48-126.2,242.08-340.43
					c3.31-67.01,12.51-120.82,27.34-159.92c13.46-35.51,31.98-59.95,55.03-72.66c76.51-42.16,189.1,48.98,271.31,115.52
					c46.47,37.62,83.18,67.33,96.37,58.95c4.28-2.72,5.97-9.45,5.16-20.59c-0.95-13.11,1.43-21.6,7.28-25.96
					c16.37-12.18,57.98,11.01,110.66,40.38c84.58,47.14,200.41,111.71,281.16,65.91c43.65-24.75,73.1-80.17,87.53-164.71l1.18,0.12
					c-14.51,84.98-44.19,140.73-88.22,165.7c-81.33,46.12-197.47-18.61-282.28-65.88c-52.33-29.17-93.66-52.21-109.41-40.49
					c-5.44,4.04-7.63,12.13-6.72,24.72c0.85,11.7-1.05,18.86-5.81,21.89c-13.91,8.83-50.88-21.1-97.69-58.99
					C714.74,73.31,602.48-17.56,526.65,24.23c-22.76,12.54-41.07,36.73-54.4,71.92c-14.78,38.96-23.94,92.62-27.25,159.49
					c-4.45,89.94-30.3,165.82-76.83,225.53c-40.93,52.51-96.83,91.6-166.15,116.16C113.97,628.52,6.36,634-93.21,612.35
					c-94.48-20.54-168.52-62.67-198.05-112.7C-309.06,469.48-310.14,437.62-294.73,406.22z"/>
			</g>
		</g>
		<g>
			<g>
				<path class="st20" d="M-312.99,405.44c4.5-9.16,10.47-18.29,17.91-27.33l0.87,0.8c-30.76,37.39-36.12,76.31-15.5,112.54
					c28.08,49.33,102.51,90.86,199.09,111.09c101.7,21.3,212,15.7,302.62-15.38c107.5-36.87,238.06-125.11,249.53-336.14
					c3.53-65.07,12.91-117.5,27.86-155.83c13.59-34.86,32.21-59.1,55.34-72.06c78.16-43.8,193.57,45.47,277.83,110.65
					c47.47,36.72,84.96,65.72,98.32,57.06c4.26-2.76,5.95-9.34,5.16-20.12c-0.92-12.66,1.44-20.94,7.21-25.31
					c16.52-12.52,59.1,10.06,113,38.64c86.82,46.03,205.72,109.07,288.31,61.77c43.64-25,73.26-79.23,88.03-161.19l1.18,0.14
					c-14.85,82.4-44.69,136.96-88.71,162.18c-83.16,47.63-202.37-15.57-289.41-61.73c-53.55-28.4-95.86-50.82-111.76-38.77
					c-5.36,4.06-7.54,11.94-6.65,24.08c0.82,11.34-1.07,18.34-5.8,21.41c-14.05,9.12-51.82-20.09-99.63-57.08
					c-84.02-65-199.1-154.01-276.59-110.58c-22.84,12.8-41.25,36.8-54.72,71.34c-14.9,38.2-24.24,90.48-27.77,155.4
					c-4.81,88.61-31.59,163.45-79.57,222.44c-42.18,51.86-99.67,90.53-170.87,114.95c-90.81,31.14-201.33,36.76-303.23,15.42
					c-96.88-20.29-171.58-62.02-199.81-111.62C-326.68,464.21-327.34,434.66-312.99,405.44z"/>
			</g>
		</g>
		<g>
			<g>
				<path class="st21" d="M-331.58,404.72c4.7-9.57,11.09-19.12,19.16-28.57l0.85,0.82c-30.58,35.83-36.74,73.03-17.79,107.56
					c53.9,98.26,305.35,162.22,511.12,94.02c110.63-36.67,245.1-124.05,257.45-332.08c3.75-63.15,13.29-114.22,28.36-151.8
					c13.72-34.21,32.42-58.25,55.6-71.45c79.85-45.49,198.17,41.94,284.57,105.78c48.49,35.83,86.79,64.13,100.3,55.18
					c4.23-2.8,5.91-9.22,5.15-19.64c-0.89-12.21,1.45-20.29,7.14-24.68c16.66-12.86,60.24,9.1,115.41,36.91
					c89.13,44.92,211.19,106.43,295.66,57.61c43.62-25.21,73.39-78.27,88.49-157.71l1.17,0.15
					c-15.18,79.86-45.18,133.25-89.17,158.68c-85.03,49.14-207.4-12.52-296.75-57.55c-54.82-27.63-98.12-49.45-114.18-37.06
					c-5.29,4.08-7.44,11.75-6.59,23.45c0.8,10.97-1.09,17.82-5.78,20.92c-14.2,9.4-52.77-19.1-101.6-55.18
					C720.85,66.4,602.85-20.79,523.67,24.32c-22.9,13.05-41.4,36.84-55,70.75c-15.01,37.44-24.52,88.36-28.26,151.35
					c-5.19,87.36-32.94,161.23-82.48,219.56c-43.51,51.23-102.7,89.51-175.91,113.78c-93.57,31.01-206.94,36.77-311.04,15.79
					c-99.18-19.99-174.46-61.23-201.39-110.31C-344.63,459.31-344.93,431.91-331.58,404.72z"/>
			</g>
		</g>
		<g>
			<g>
				<path class="st22" d="M-350.5,404.08c4.89-9.95,11.69-19.89,20.4-29.73l0.84,0.84c-30.44,34.38-37.32,69.98-19.91,102.94
					c25.47,48.22,101,88.68,202.05,108.24c106.01,20.52,221.95,14.66,318.08-16.1c113.98-36.46,252.65-123.02,265.92-328.26
					c3.96-61.26,13.66-110.99,28.83-147.82c13.82-33.57,32.61-57.4,55.82-70.84c81.56-47.21,202.91,38.39,291.52,100.89
					c49.55,34.95,88.69,62.56,102.35,53.33c4.19-2.83,5.87-9.1,5.14-19.18c-0.86-11.78,1.45-19.64,7.05-24.04
					c16.8-13.19,61.4,8.16,117.87,35.19c91.51,43.8,216.84,103.79,303.23,53.44c43.57-25.39,73.47-77.29,88.88-154.26l1.17,0.16
					c-15.5,77.38-45.63,129.6-89.55,155.21c-86.93,50.67-212.57-9.47-304.3-53.38c-56.12-26.86-100.45-48.08-116.65-35.36
					c-5.2,4.08-7.33,11.55-6.51,22.82c0.77,10.62-1.11,17.31-5.76,20.45c-14.34,9.69-53.75-18.11-103.65-53.31
					c-88.37-62.33-209.39-147.7-290.3-100.86c-22.95,13.28-41.53,36.88-55.23,70.15c-15.11,36.68-24.77,86.26-28.72,147.36
					c-5.58,86.2-34.37,159.16-85.57,216.86c-44.95,50.64-105.94,88.54-181.29,112.65c-96.31,30.81-212.45,36.69-318.64,16.13
					c-101.36-19.62-177.17-60.29-202.8-108.8C-362.93,454.79-362.92,429.39-350.5,404.08z"/>
			</g>
		</g>
		<g>
			<g>
				<path class="st23" d="M-369.76,403.51c5.06-10.3,12.28-20.61,21.64-30.81l0.82,0.86c-30.76,33.52-38.13,66.71-21.88,98.65
					c24.18,47.55,100.17,87.37,203.26,106.52c107.97,20.06,226.6,14.08,325.46-16.4c166.23-51.25,263.88-166.56,274.97-324.67
					c4.17-59.4,14.01-107.81,29.27-143.88c13.93-32.92,32.76-56.55,56-70.2c83.3-48.96,207.79,34.82,298.7,96
					c50.64,34.08,90.65,61.01,104.45,51.48c4.15-2.86,5.82-8.98,5.12-18.71c-0.82-11.35,1.45-19.01,6.96-23.41
					c16.92-13.52,62.58,7.22,120.39,33.48c93.97,42.69,222.67,101.15,311.01,49.27c43.49-25.54,73.52-76.29,89.24-150.83l1.17,0.18
					c-15.81,74.96-46.05,126.02-89.9,151.77c-88.87,52.19-217.87-6.41-312.06-49.19c-57.46-26.1-102.85-46.72-119.18-33.66
					c-5.11,4.09-7.22,11.35-6.43,22.2c0.75,10.27-1.13,16.8-5.72,19.97c-14.47,9.98-54.75-17.12-105.74-51.44
					C727.1,59.66,602.94-23.91,520.28,24.68c-22.98,13.5-41.62,36.9-55.42,69.54c-15.19,35.93-25,84.19-29.16,143.43
					c-5.97,85.12-35.87,157.24-88.87,214.36c-46.48,50.08-109.41,87.62-187.06,111.55c-99.03,30.53-217.86,36.52-326,16.44
					c-103.42-19.21-179.69-59.25-204.02-107.1C-381.58,450.62-381.32,427.07-369.76,403.51z"/>
			</g>
		</g>
		<g>
			<g>
				<path class="st24" d="M-389.37,403.02c5.22-10.63,12.85-21.27,22.88-31.81l0.8,0.88c-30.69,32.27-38.68,64.13-23.73,94.67
					c22.9,46.82,99.27,85.94,204.28,104.63c109.78,19.55,231,13.48,332.57-16.65c171.73-50.94,272.83-165.06,284.67-321.33
					c4.36-57.57,14.35-104.67,29.68-140c14.01-32.28,32.9-55.69,56.14-69.56c85.08-50.76,212.83,31.23,306.1,91.09
					c51.77,33.22,92.66,59.46,106.6,49.65c4.11-2.89,5.77-8.85,5.08-18.24c-0.79-10.93,1.45-18.38,6.86-22.78
					c17.04-13.85,63.79,6.28,122.97,31.77c96.5,41.57,228.67,98.49,319,45.09c43.4-25.66,73.52-75.26,89.54-147.45l1.17,0.19
					c-16.1,72.59-46.45,122.51-90.19,148.37c-90.85,53.71-223.32-3.34-320.04-45c-58.83-25.34-105.3-45.36-121.77-31.97
					c-5.02,4.08-7.09,11.14-6.33,21.58c0.72,9.92-1.14,16.3-5.68,19.5c-14.6,10.27-55.76-16.15-107.88-49.59
					c-93.04-59.71-220.46-141.48-304.91-91.1c-48.19,28.75-76.83,98.88-85.14,208.45c-6.38,84.13-37.46,155.48-92.4,212.06
					c-48.12,49.56-113.14,86.74-193.25,110.51C45.91,586.15-75.5,592.23-185.45,572.66c-105.34-18.76-182-58.09-205.05-105.23
					C-400.6,446.78-400.14,424.94-389.37,403.02z"/>
			</g>
		</g>
		<g>
			<g>
				<path class="st25" d="M-409.72,402.98c5.38-10.96,13.54-22,24.48-33.11l0.79,0.89c-30.65,31.11-39.22,61.72-25.46,90.98
					c21.65,46.03,98.31,84.38,205.07,102.59c111.43,19,235.12,12.86,339.37-16.84c177.67-50.62,282.48-163.64,295.11-318.23
					c4.56-55.77,14.67-101.58,30.06-136.17c14.09-31.66,33-54.84,56.23-68.89c86.88-52.58,218.01,27.61,313.75,86.17
					c52.92,32.37,94.72,57.94,108.8,47.84c4.05-2.91,5.7-8.72,5.04-17.78c-0.76-10.52,1.44-17.77,6.75-22.16
					c17.15-14.17,65.01,5.36,125.61,30.08c99.11,40.44,234.85,95.83,327.2,40.9c43.28-25.74,73.5-74.23,89.8-144.11l1.16,0.21
					c-16.39,70.28-46.82,119.06-90.45,145.01c-92.86,55.23-228.89-0.28-328.22-40.81c-60.25-24.58-107.83-44-124.42-30.29
					c-4.93,4.07-6.97,10.93-6.23,20.96c0.7,9.58-1.15,15.81-5.63,19.03c-14.72,10.56-56.79-15.17-110.07-47.76
					c-95.5-58.41-226.3-138.41-312.57-86.2c-48.13,29.13-76.94,97.75-85.62,203.96c-6.8,83.24-39.16,153.88-96.18,209.97
					c-49.89,49.08-117.15,85.92-199.91,109.5c-104.41,29.75-228.28,35.9-339.87,16.87c-107.11-18.27-184.07-56.85-205.87-103.2
					C-420.08,443.07-419.63,423.18-409.72,402.98z"/>
			</g>
		</g>
		<g>
			<g>
				<path class="st26" d="M-430.04,402.61c5.5-11.21,14.07-22.53,25.7-33.92l0.77,0.91c-30.65,30.04-39.76,59.49-27.09,87.55
					c20.41,45.19,97.28,82.72,205.64,100.41c112.88,18.43,238.93,12.25,345.82-16.95c184.12-50.29,292.93-162.31,306.37-315.4
					c9.08-103.38,38.25-170.87,86.69-200.59c88.72-54.43,223.33,23.98,321.62,81.24c54.11,31.52,96.86,56.42,111.06,46.03
					c4-2.93,5.63-8.59,5-17.32c-0.74-10.13,1.44-17.17,6.63-21.54c17.26-14.49,66.26,4.43,128.31,28.39
					c101.8,39.31,241.21,93.14,335.62,36.71c43.16-25.8,73.44-73.16,90.01-140.79l1.16,0.22c-16.67,68.01-47.17,115.68-90.66,141.68
					c-94.91,56.73-234.61,2.79-336.62-36.61c-61.7-23.83-110.43-42.64-127.13-28.62c-4.83,4.05-6.83,10.71-6.13,20.35
					c0.67,9.25-1.15,15.32-5.58,18.56c-14.83,10.85-57.85-14.21-112.32-45.94C736.78,49.86,602.49-28.36,514.38,25.7
					c-48.04,29.48-76.98,96.6-86.02,199.51c-7.24,82.44-40.98,152.45-100.26,208.1c-51.81,48.63-121.49,85.15-207.1,108.53
					c-107.04,29.24-233.26,35.43-346.3,16.98c-108.71-17.74-185.89-55.52-206.45-101.04C-439.86,439.85-439.26,421.39-430.04,402.61
					z"/>
			</g>
		</g>
		<g>
			<g>
				<path class="st27" d="M-450.73,402.32c5.61-11.43,14.58-22.99,26.9-34.66l0.75,0.93c-30.68,29.04-40.32,57.42-28.64,84.35
					c19.2,44.29,96.19,80.96,205.94,98.1c114.13,17.83,242.38,11.64,351.86-16.97c191.12-49.95,304.25-161.06,318.55-312.84
					c9.43-100.13,38.71-166.13,87.02-196.16c90.58-56.31,228.81,20.33,329.74,76.28c55.34,30.68,99.05,54.92,113.37,44.24
					c3.94-2.94,5.56-8.45,4.95-16.86c-0.71-9.73,1.42-16.58,6.51-20.92c17.35-14.8,67.53,3.52,131.06,26.72
					c104.56,38.17,247.75,90.45,344.25,32.51c43.01-25.82,73.35-72.09,90.19-137.52l1.16,0.24
					c-16.93,65.81-47.49,112.37-90.83,138.39c-96.99,58.23-240.47,5.84-345.24-32.4c-63.18-23.07-113.09-41.29-129.89-26.96
					c-4.72,4.03-6.69,10.49-6.01,19.74c0.65,8.93-1.15,14.85-5.51,18.1c-14.94,11.14-58.93-13.25-114.62-44.13
					C740.08,46.68,602.18-29.78,512.19,26.17c-47.91,29.79-76.97,95.42-86.36,195.09c-7.7,81.73-42.92,151.2-104.67,206.45
					c-53.89,48.22-126.19,84.43-214.88,107.61c-109.63,28.65-238.04,34.84-352.32,16.99c-110.12-17.2-187.42-54.12-206.77-98.75
					C-460.02,436.93-459.31,419.79-450.73,402.32z"/>
			</g>
		</g>
		<g>
			<g>
				<path class="st28" d="M-471.81,402.12c5.71-11.63,15.08-23.42,28.11-35.34l0.73,0.94c-30.74,28.12-40.87,55.5-30.11,81.39
					c18.02,43.33,95.01,79.1,205.95,95.69c115.15,17.21,245.43,11.06,357.44-16.88C205.42,499.2,401.6,420.67,422.08,217.37
					c5.2-51.59,15.96-94.01,32.13-126.97c14.22-28.96,32.62-50.62,55.14-64.79c92.47-58.21,234.43,16.65,338.09,71.31
					c56.6,29.85,101.31,53.42,115.74,42.47c3.88-2.95,5.47-8.31,4.89-16.4c-0.68-9.36,1.41-16,6.39-20.32
					c17.44-15.1,68.83,2.62,133.89,25.05c107.39,37.02,254.46,87.73,353.08,28.32c42.85-25.81,73.24-70.99,90.32-134.29l1.15,0.26
					c-17.19,63.67-47.79,109.13-90.95,135.13c-99.1,59.7-246.46,8.9-354.06-28.2c-64.72-22.31-115.83-39.94-132.73-25.3
					c-4.61,4-6.54,10.26-5.9,19.14c0.62,8.61-1.15,14.37-5.45,17.63c-15.04,11.42-60.03-12.3-116.98-42.33
					C743.42,43.55,601.78-31.15,509.9,26.7c-47.75,30.06-76.89,94.22-86.62,190.7c-8.18,81.14-45.01,150.12-109.46,205.05
					c-56.16,47.85-131.3,83.76-223.33,106.72c-112.15,27.98-242.59,34.14-357.88,16.9c-111.31-16.64-188.62-52.66-206.79-96.36
					C-480.6,434.28-479.79,418.37-471.81,402.12z"/>
			</g>
		</g>
		<g>
			<g>
				<path class="st29" d="M-493.28,402.02c5.79-11.8,15.57-23.81,29.31-35.96l0.72,0.96c-30.84,27.27-41.45,53.72-31.52,78.62
					c16.87,42.32,93.73,77.15,205.62,93.17c115.91,16.59,248.02,10.51,362.48-16.68c119.94-28.49,324.4-106.46,346.16-308.54
					c10.1-93.81,39.53-156.85,87.46-187.39c94.39-60.12,240.21,12.97,346.69,66.33c57.9,29.02,103.63,51.94,118.16,40.7
					c3.81-2.94,5.38-8.16,4.82-15.94c-0.66-8.99,1.39-15.44,6.25-19.71c17.51-15.4,70.14,1.72,136.77,23.38
					c110.3,35.87,261.36,84.99,362.15,24.12c42.67-25.77,73.1-69.88,90.43-131.1l1.15,0.27c-17.44,61.58-48.07,105.97-91.06,131.93
					c-101.26,61.15-252.6,11.94-363.1-23.99c-66.28-21.55-118.64-38.58-135.62-23.65c-4.51,3.96-6.39,10.03-5.77,18.55
					c0.6,8.29-1.15,13.91-5.37,17.17c-15.14,11.7-58.87-10.21-119.39-40.55C746.81,40.46,601.3-32.47,507.49,27.29
					c-47.56,30.29-76.76,92.98-86.81,186.34C412,294.27,373.41,362.87,306,417.51c-58.63,47.53-136.86,83.15-232.51,105.87
					c-114.59,27.22-246.86,33.31-362.9,16.7c-112.27-16.07-189.45-51.16-206.47-93.85C-501.58,431.91-500.69,417.13-493.28,402.02z"
					/>
			</g>
		</g>
		<g>
			<g>
				<path class="st30" d="M-515.14,402.01c5.87-11.96,16.05-24.15,30.52-36.52l0.7,0.97c-30.97,26.48-42.03,52.06-32.88,76.04
					c15.74,41.27,92.34,75.12,204.9,90.56c116.36,15.97,250.08,10.01,366.88-16.33c125.24-28.25,338.79-105.68,361.88-306.84
					c10.42-90.74,39.88-152.32,87.57-183.05C547.08-0.63,603.9-4.47,678.13,15.09c63.36,16.7,129.05,47.97,181.83,73.09
					c59.23,28.19,106.01,50.46,120.65,38.95c3.74-2.94,5.29-8.01,4.75-15.49c-0.63-8.63,1.37-14.89,6.12-19.12
					c17.58-15.68,71.47,0.83,139.71,21.73c113.29,34.7,268.44,82.23,371.42,19.93c42.49-25.7,72.94-68.75,90.51-127.96l1.14,0.29
					c-17.67,59.55-48.33,102.88-91.13,128.77c-103.44,62.58-258.87,14.97-372.36-19.79c-67.89-20.8-121.51-37.22-138.57-22.01
					c-4.39,3.92-6.24,9.79-5.64,17.96c0.58,7.99-1.15,13.45-5.29,16.71c-15.23,11.98-59.96-9.31-121.87-38.78
					C750.23,37.4,600.74-33.75,504.98,27.93c-47.32,30.48-76.57,91.72-86.94,182.01c-9.21,80.27-49.72,148.57-120.38,202.98
					c-61.35,47.25-142.95,82.59-242.54,105.06c-116.92,26.37-250.79,32.33-367.28,16.35c-112.95-15.5-189.87-49.62-205.76-91.27
					C-522.99,429.79-522.04,416.06-515.14,402.01z"/>
			</g>
		</g>
		<g>
			<g>
				<path class="st31" d="M-537.43,402.1c5.94-12.09,16.52-24.46,31.73-37.03l0.68,0.99c-31.13,25.74-42.63,50.51-34.19,73.64
					c14.66,40.16,90.83,73.01,203.75,87.88c116.49,15.34,251.55,9.56,370.56-15.85c131.05-27.99,354.56-104.89,379.06-305.43
					c10.72-87.73,40.2-147.87,87.62-178.73C545.31-0.77,603.51-5.51,679.73,13.07c65.04,15.86,132.5,46.32,186.7,70.8
					c60.6,27.37,108.46,48.99,123.18,37.2c3.66-2.93,5.19-7.85,4.67-15.04c-0.59-8.17,1.42-14.4,5.98-18.53
					c17.64-15.96,72.84-0.05,142.72,20.09c116.35,33.53,275.7,79.44,380.91,15.74c42.29-25.61,72.76-67.62,90.55-124.86l1.14,0.31
					c-17.9,57.59-48.58,99.87-91.17,125.66c-105.66,63.98-265.28,17.99-381.83-15.6c-69.54-20.04-124.47-35.87-141.59-20.38
					c-4.28,3.87-6.08,9.56-5.51,17.38c0.56,7.69-1.14,13-5.2,16.25c-15.3,12.25-61.06-8.41-124.39-37.02
					C753.71,34.4,600.09-34.99,502.35,28.64c-47.05,30.63-76.32,90.43-86.99,177.71c-9.78,80.02-52.38,148.1-126.63,202.35
					c-63.43,46.35-151.08,82.4-253.48,104.27c-119.13,25.44-254.33,31.22-370.94,15.87c-113.33-14.92-189.83-48.04-204.63-88.6
					C-544.83,427.92-543.84,415.17-537.43,402.1z"/>
			</g>
		</g>
	</g>
</g>
</svg>
