<?xml version="1.0" encoding="utf-8"?>
<!-- Generator: Adobe Illustrator 27.0.0, SVG Export Plug-In . SVG Version: 6.00 Build 0)  -->
<svg version="1.1" id="Layer_1" xmlns="http://www.w3.org/2000/svg" xmlns:xlink="http://www.w3.org/1999/xlink" x="0px" y="0px"
	 viewBox="0 0 200 80" style="enable-background:new 0 0 200 80;" xml:space="preserve">
<g>
	<g>
		<path fill="currentColor" d="M43.95,24.04h6.67c2.13,0,3.85,0.16,5.18,0.48s2.49,0.86,3.48,1.62c1.33,1.03,2.35,2.34,3.06,3.95
			c0.84,1.86,1.25,3.84,1.25,5.94c0,2.98-0.73,5.68-2.18,8.13c-1.25,2.1-2.9,3.59-4.94,4.47s-4.87,1.32-8.51,1.32h-6.99
			c-0.6,0-0.97-0.06-1.14-0.19c-0.2-0.18-0.3-0.41-0.3-0.68c0-0.1,0.02-0.33,0.06-0.68l2.85-23.03c0.08-0.61,0.19-0.98,0.35-1.12
			S43.33,24.04,43.95,24.04z M48.45,29.74l-1.79,14.53h2.26c1.42,0,2.54-0.13,3.36-0.39s1.56-0.72,2.22-1.4
			c1.54-1.53,2.32-3.68,2.32-6.44c0-2.2-0.54-3.85-1.61-4.96c-0.87-0.9-2.33-1.35-4.37-1.35H48.45z"/>
		<path fill="currentColor" d="M71.89,42.58c0,1.19,0.21,2.03,0.65,2.51c0.56,0.59,1.37,0.89,2.43,0.89c0.53,0,1.01-0.11,1.42-0.33
			c0.42-0.22,0.69-0.51,0.82-0.86c0.08-0.25,0.2-0.42,0.37-0.48s0.51-0.1,1.02-0.1h3.8c0.51,0,0.84,0.04,1.01,0.11
			c0.3,0.13,0.46,0.36,0.46,0.7c0,0.35-0.19,0.85-0.58,1.48c-0.39,0.63-0.82,1.16-1.3,1.59c-1.75,1.59-4.13,2.39-7.16,2.39
			c-2.72,0-4.84-0.67-6.36-2.01c-0.84-0.73-1.49-1.67-1.96-2.81s-0.7-2.36-0.7-3.67c0-2.8,0.91-5.15,2.73-7.04
			c1.82-1.91,4.33-2.87,7.52-2.87c3.04,0,5.33,0.91,6.87,2.72c1.35,1.58,2.03,3.72,2.03,6.42c0,0.59-0.09,0.97-0.26,1.13
			s-0.58,0.24-1.23,0.24H71.89z M78.4,38.95c-0.05-0.65-0.19-1.15-0.42-1.5c-0.53-0.78-1.35-1.18-2.45-1.18
			c-1.75,0-2.82,0.89-3.21,2.68H78.4z"/>
		<path fill="currentColor" d="M102.91,35.06l-0.55,1.6c-0.16,0.46-0.31,0.76-0.44,0.9c-0.13,0.15-0.32,0.22-0.57,0.22c-0.14,0-0.69-0.23-1.65-0.7
			c-0.53-0.27-1.25-0.4-2.15-0.4c-1.46,0-2.18,0.35-2.18,1.06c0,0.3,0.13,0.51,0.39,0.63c0.26,0.11,1.16,0.38,2.71,0.8
			c1.61,0.42,2.77,1.01,3.48,1.77c0.77,0.84,1.16,1.87,1.16,3.1c0,1.84-0.65,3.33-1.94,4.48c-1.48,1.33-3.53,1.99-6.15,1.99
			c-2.54,0-4.96-0.73-7.25-2.18c-0.3-0.2-0.46-0.46-0.46-0.78c0-0.15,0.13-0.46,0.4-0.93l0.95-1.71c0.23-0.4,0.4-0.66,0.52-0.78
			c0.12-0.11,0.29-0.17,0.52-0.17c0.14,0,0.9,0.38,2.3,1.14c0.71,0.38,1.65,0.57,2.83,0.57c0.73,0,1.31-0.11,1.72-0.32
			c0.41-0.21,0.62-0.51,0.62-0.89c0-0.24-0.08-0.43-0.25-0.57c-0.14-0.11-0.33-0.21-0.56-0.28c-0.23-0.07-0.99-0.26-2.27-0.56
			c-1.38-0.33-2.42-0.79-3.13-1.39c-1.01-0.84-1.52-2.06-1.52-3.66c0-1.8,0.68-3.24,2.04-4.34c1.36-1.1,3.16-1.64,5.4-1.64
			c1.92,0,3.75,0.43,5.47,1.29c0.53,0.25,0.8,0.55,0.8,0.89C103.14,34.33,103.07,34.63,102.91,35.06z"/>
		<path fill="currentColor" d="M114.18,34.14l-1.8,14.49c-0.06,0.61-0.17,0.98-0.33,1.12c-0.16,0.14-0.55,0.21-1.17,0.21h-3.49
			c-0.6,0-0.98-0.06-1.14-0.19c-0.2-0.18-0.3-0.4-0.3-0.67c0-0.11,0.02-0.35,0.06-0.7l1.8-14.49c0.08-0.61,0.19-0.98,0.35-1.12
			c0.16-0.14,0.54-0.21,1.15-0.21h3.51c0.58,0,0.96,0.06,1.12,0.19c0.2,0.18,0.3,0.41,0.3,0.68
			C114.23,33.56,114.21,33.79,114.18,34.14z M112.09,22.22c0.99,0,1.84,0.34,2.54,1.03c0.77,0.75,1.16,1.67,1.16,2.77
			c0,1.06-0.37,1.97-1.1,2.72s-1.62,1.12-2.66,1.12c-1.15,0-2.1-0.42-2.83-1.25c-0.67-0.76-1.01-1.63-1.01-2.6
			c0-1.04,0.36-1.91,1.08-2.62C110.07,22.61,111.01,22.22,112.09,22.22z"/>
		<path fill="currentColor" d="M129.73,48.16c-0.79,0.73-1.44,1.25-1.97,1.56c-0.92,0.51-1.97,0.76-3.13,0.76c-1.08,0-2.12-0.21-3.13-0.64
			c-1.01-0.42-1.85-1-2.51-1.74c-1.34-1.48-2.01-3.56-2.01-6.25c0-2.86,0.8-5.18,2.39-6.97c1.68-1.87,3.8-2.81,6.34-2.81
			c1.25,0,2.33,0.23,3.23,0.68c0.9,0.46,1.8,1.23,2.7,2.34l0.04-1.1c0.02-0.62,0.12-1.01,0.28-1.16c0.17-0.16,0.56-0.25,1.18-0.25
			h3.44c0.59,0,0.97,0.06,1.12,0.19c0.22,0.18,0.32,0.41,0.32,0.68c0,0.09-0.03,0.31-0.08,0.66l-1.79,14.55
			c-0.44,3.62-1.13,6.13-2.07,7.54c-0.87,1.29-2.02,2.22-3.44,2.77c-1.41,0.56-3.17,0.84-5.28,0.84c-4.32,0-7.13-1.36-8.45-4.08
			c-0.46-0.94-0.68-1.76-0.68-2.47c0-0.34,0.1-0.57,0.3-0.69c0.2-0.12,0.58-0.18,1.14-0.18h3.23c0.52,0,0.86,0.04,1.02,0.11
			c0.16,0.08,0.29,0.27,0.41,0.59c0.19,0.49,0.57,0.9,1.15,1.21s1.24,0.47,1.98,0.47c1.2,0,2.12-0.32,2.74-0.95s1.03-1.64,1.21-3.02
			L129.73,48.16z M127.33,37.13c-1.33,0-2.35,0.56-3.08,1.67c-0.51,0.79-0.76,1.71-0.76,2.77c0,1.09,0.29,1.98,0.85,2.68
			c0.65,0.79,1.53,1.18,2.64,1.18c1.25,0,2.2-0.48,2.85-1.44c0.59-0.89,0.89-1.96,0.89-3.23c0-1.25-0.37-2.2-1.1-2.83
			C129.01,37.39,128.25,37.13,127.33,37.13z"/>
		<path fill="currentColor" d="M148.68,34.85c0.92-0.82,1.7-1.41,2.32-1.77c1.22-0.67,2.55-1.01,4.01-1.01c2.21,0,3.78,0.73,4.69,2.18
			c0.52,0.84,0.78,1.87,0.78,3.11c0,0.67-0.08,1.61-0.23,2.81l-1.03,8.45c-0.08,0.61-0.19,0.98-0.35,1.12
			c-0.16,0.14-0.55,0.21-1.17,0.21h-3.49c-0.59,0-0.97-0.06-1.12-0.19c-0.2-0.18-0.3-0.41-0.3-0.68c0-0.14,0.02-0.37,0.06-0.68
			l0.74-6.1c0.11-0.89,0.17-1.6,0.17-2.15c0-1.84-0.78-2.75-2.34-2.75c-1.03,0-1.81,0.37-2.35,1.12c-0.47,0.63-0.81,1.83-1.03,3.59
			l-0.8,6.51c-0.09,0.59-0.21,0.97-0.36,1.12c-0.17,0.14-0.55,0.21-1.16,0.21h-3.49c-0.6,0-0.98-0.06-1.14-0.19
			c-0.2-0.18-0.3-0.4-0.3-0.67c0-0.11,0.02-0.35,0.06-0.7l1.8-14.49c0.08-0.61,0.19-0.98,0.35-1.12c0.16-0.14,0.54-0.21,1.15-0.21
			h3.38c0.56,0,0.94,0.06,1.14,0.18c0.2,0.12,0.3,0.34,0.3,0.65c0,0.11-0.04,0.38-0.13,0.8L148.68,34.85z"/>
	</g>
</g>
</svg>
