<?xml version="1.0" encoding="utf-8"?>
<!-- Generator: Adobe Illustrator 27.0.0, SVG Export Plug-In . SVG Version: 6.00 Build 0)  -->
<svg version="1.1" id="Layer_1" xmlns="http://www.w3.org/2000/svg" xmlns:xlink="http://www.w3.org/1999/xlink" x="0px" y="0px"
	 viewBox="0 0 200 80" style="enable-background:new 0 0 200 80;" xml:space="preserve">
<g>
	<g>
		<g>
			<path fill="currentColor" d="M98.44,32.18c0,0,0,14.34,0,17.21c0,3.48,0.5,12.85,11.89,12.85s12.61-13,12.61-13s-1.43,4.92-5.9,5.29
				c-5.25,0.43-6.33-3.71-6.32-5.87c0.01-0.9-0.01-9.88-0.01-9.88s3.23,0.03,6.12,0.03v-6.83h-6.11V17.76c0,0-0.93,8.59-4.91,11.76
				C102.33,32.29,98.44,32.18,98.44,32.18z"/>
			<circle fill="currentColor" cx="90.07" cy="24.11" r="6.36"/>
			<rect fill="currentColor" x="84.09" y="32.4" width="12.33" height="29.85"/>
		</g>
	</g>
	<g>
		<path fill="currentColor" d="M141.17,41.58c-3.88,0-4.43,2.35-4.43,4.05c0,1.48,0.22,2.95,0.44,4.43c0.22,1.48,0.44,3.01,0.44,4.49
			c0,5.52-3.45,7.49-7.93,7.49h-1.15v-3.01h0.93c3.06-0.05,4.38-1.7,4.38-4.76c0-1.31-0.22-2.57-0.38-3.94
			c-0.22-1.31-0.44-2.68-0.44-4.16c0-3.5,1.53-5.36,3.94-5.96v-0.11c-2.41-0.66-3.94-2.41-3.94-5.91c0-1.48,0.22-2.79,0.44-4.16
			c0.16-1.31,0.38-2.63,0.38-3.88c0-2.95-1.15-4.65-4.32-4.7h-0.98v-3.01h1.09c4.65,0,7.99,2.13,7.99,7.17
			c0,1.53-0.22,3.01-0.44,4.54c-0.22,1.53-0.44,3.06-0.44,4.59c0,1.91,0.55,4.05,4.43,4.05V41.58z"/>
	</g>
	<g>
		<path fill="currentColor" d="M58.83,38.79c3.88,0,4.43-2.13,4.43-4.05c0-1.53-0.22-3.06-0.44-4.59c-0.22-1.53-0.44-3.01-0.44-4.54
			c0-5.03,3.34-7.17,7.99-7.17h1.09v3.01h-0.98c-3.17,0.05-4.32,1.75-4.32,4.7c0,1.26,0.22,2.57,0.38,3.88
			c0.22,1.37,0.44,2.68,0.44,4.16c0,3.5-1.53,5.25-3.94,5.91v0.11c2.41,0.6,3.94,2.46,3.94,5.96c0,1.48-0.22,2.84-0.44,4.16
			c-0.16,1.37-0.38,2.63-0.38,3.94c0,3.06,1.31,4.7,4.38,4.76h0.93v3.01h-1.15c-4.49,0-7.93-1.97-7.93-7.49
			c0-1.48,0.22-3.01,0.44-4.49c0.22-1.48,0.44-2.95,0.44-4.43c0-1.7-0.55-4.05-4.43-4.05V38.79z"/>
	</g>
</g>
</svg>
