<?xml version="1.0" encoding="utf-8"?>
<!-- Generator: Adobe Illustrator 27.0.0, SVG Export Plug-In . SVG Version: 6.00 Build 0)  -->
<svg version="1.1" id="Layer_1" xmlns="http://www.w3.org/2000/svg" xmlns:xlink="http://www.w3.org/1999/xlink" x="0px" y="0px"
	 viewBox="0 0 200 80" style="enable-background:new 0 0 200 80;" xml:space="preserve">
<g>
	<g>
		<g>
			<g>
				<path fill="currentColor" d="M98.4,32.2c0,0,0,14.3,0,17.2c0,3.5,0.5,12.8,11.9,12.8s12.6-13,12.6-13s-1.4,4.9-5.9,5.3c-5.2,0.4-6.3-3.7-6.3-5.9
					c0-0.9,0-9.9,0-9.9s3.2,0,6.1,0V32h-6.1V17.8c0,0-0.9,8.6-4.9,11.8C102.3,32.3,98.4,32.2,98.4,32.2z"/>
				<circle fill="currentColor" cx="90.1" cy="24.1" r="6.4"/>
				<rect fill="currentColor" x="84.1" y="32.4" width="12.3" height="29.8"/>
			</g>
		</g>
	</g>
	<path fill="currentColor" d="M130.1,58c-0.5,0-1.1-0.2-1.5-0.6c-0.7-0.8-0.7-2.1,0.1-2.8l15.7-14.5c0.1-0.1,0.1-0.2,0.1-0.3s0-0.2-0.1-0.3l-15.6-13.7
		c-0.8-0.7-0.9-2-0.2-2.8c0.7-0.8,2-0.9,2.8-0.2L147,36.5c0.9,0.8,1.5,2,1.5,3.3s-0.5,2.4-1.4,3.3l-15.7,14.5
		C131,57.9,130.6,58,130.1,58z"/>
	<path fill="currentColor" d="M71.9,58c-0.5,0-1-0.2-1.4-0.5L54.9,43.1c-0.9-0.8-1.4-2-1.4-3.3c0-1.2,0.6-2.4,1.5-3.3l15.6-13.7c0.8-0.7,2.1-0.6,2.8,0.2
		c0.7,0.8,0.6,2.1-0.2,2.8L57.6,39.5c-0.1,0.1-0.1,0.2-0.1,0.3s0,0.2,0.1,0.3l15.7,14.5c0.8,0.7,0.9,2,0.1,2.8
		C73,57.8,72.4,58,71.9,58z"/>
</g>
</svg>
