<?xml version="1.0" encoding="utf-8"?>
<!-- Generator: Adobe Illustrator 27.0.0, SVG Export Plug-In . SVG Version: 6.00 Build 0)  -->
<svg version="1.1" id="Layer_1" xmlns="http://www.w3.org/2000/svg" xmlns:xlink="http://www.w3.org/1999/xlink" x="0px" y="0px"
	 viewBox="0 0 200 80" style="enable-background:new 0 0 200 80;" xml:space="preserve">
<g>
	<g>
		<path fill="currentColor" d="M30.95,33.2c-0.57,1.54-1.18,2.97-1.84,4.27l-5.85,11.51c-0.08,0.16-0.13,0.28-0.17,0.34c-0.14,0.29-0.29,0.47-0.44,0.54
			s-0.49,0.1-1.01,0.1h-1.08c-0.6,0-0.97-0.06-1.12-0.18c-0.15-0.12-0.29-0.48-0.42-1.07l-1.96-8.79c-0.46-2-0.82-4.37-1.08-7.12
			c-0.53,2.67-0.99,4.65-1.37,5.92l-2.98,10.06c-0.17,0.57-0.32,0.91-0.48,1.02s-0.52,0.16-1.1,0.16H6.28
			c-0.49,0-0.82-0.03-0.97-0.09c-0.32-0.13-0.47-0.37-0.47-0.72c0-0.15,0.07-0.44,0.21-0.87l7.29-23.07c0.18-0.56,0.34-0.89,0.48-1
			s0.52-0.16,1.11-0.16h4.01c0.59,0,0.97,0.06,1.12,0.18c0.15,0.12,0.3,0.47,0.44,1.05l1.67,7.52c0.47,2.1,0.85,4.36,1.14,6.78
			c0.48-1.35,0.97-2.53,1.48-3.53l5.62-11.01c0.25-0.49,0.45-0.78,0.58-0.86s0.48-0.12,1.04-0.12h4.25c0.62,0,1.02,0.08,1.2,0.25
			c0.16,0.16,0.25,0.56,0.27,1.18l0.72,23.01c0.01,0.23,0.02,0.39,0.02,0.47c0,0.41-0.09,0.67-0.28,0.81s-0.57,0.2-1.17,0.2h-3.65
			c-0.62,0-1.02-0.08-1.2-0.25c-0.17-0.16-0.25-0.56-0.27-1.18l-0.28-10.2C30.6,36.9,30.7,35.18,30.95,33.2z"/>
		<path fill="currentColor" d="M54.61,48.06c-0.75,0.68-1.41,1.18-1.98,1.5c-1.16,0.62-2.48,0.93-3.93,0.93c-2.2,0-3.94-0.73-5.2-2.18
			c-1.35-1.54-2.03-3.56-2.03-6.06c0-2.04,0.47-3.9,1.41-5.6s2.22-2.94,3.84-3.74c1.16-0.57,2.47-0.85,3.91-0.85
			c1.22,0,2.22,0.18,3.03,0.54c0.8,0.36,1.67,1.02,2.61,1.97v-0.55c0.01-0.62,0.1-1.01,0.27-1.18c0.18-0.16,0.58-0.25,1.2-0.25h3.4
			c0.59,0,0.97,0.06,1.12,0.19c0.22,0.18,0.32,0.41,0.32,0.68c0,0.1-0.02,0.33-0.06,0.68l-1.79,14.49
			c-0.08,0.61-0.19,0.98-0.35,1.12c-0.16,0.14-0.55,0.21-1.17,0.21h-3.38c-0.48,0-0.8-0.03-0.95-0.09
			c-0.32-0.11-0.47-0.35-0.47-0.72c0-0.16,0.04-0.44,0.13-0.82L54.61,48.06z M52.14,37.11c-1.19,0-2.18,0.45-2.96,1.34
			C48.39,39.34,48,40.46,48,41.8c0,0.95,0.22,1.72,0.67,2.32c0.65,0.89,1.58,1.33,2.81,1.33c1.19,0,2.17-0.45,2.92-1.34
			c0.76-0.89,1.14-2.03,1.14-3.41c0-1.09-0.31-1.96-0.92-2.61C54,37.43,53.18,37.11,52.14,37.11z"/>
		<path fill="currentColor" d="M73.25,34.94c1-0.9,1.91-1.52,2.73-1.85c0.82-0.34,1.83-0.5,3.05-0.5c0.77,0,1.16,0.29,1.16,0.87
			c0,0.11-0.02,0.34-0.06,0.68l-0.32,2.68c-0.06,0.52-0.16,0.87-0.29,1.05s-0.33,0.28-0.61,0.28c-0.09,0-0.23-0.03-0.42-0.08
			c-0.63-0.19-1.23-0.28-1.8-0.28c-1.47,0-2.54,0.49-3.23,1.48c-0.42,0.62-0.73,1.72-0.93,3.3l-0.76,6.06
			c-0.08,0.59-0.2,0.97-0.36,1.12c-0.17,0.14-0.54,0.21-1.14,0.21h-3.49c-0.6,0-0.98-0.06-1.14-0.19c-0.2-0.18-0.3-0.4-0.3-0.67
			c0-0.11,0.02-0.35,0.06-0.7l1.8-14.49c0.08-0.61,0.19-0.98,0.35-1.12c0.16-0.14,0.54-0.21,1.15-0.21h3.4
			c0.56,0,0.94,0.06,1.14,0.18c0.2,0.12,0.3,0.34,0.3,0.65c0,0.13-0.04,0.39-0.13,0.78L73.25,34.94z"/>
		<path fill="currentColor" d="M88.8,38.8l4.92-5.49c0.35-0.39,0.58-0.61,0.68-0.66c0.1-0.04,0.41-0.07,0.93-0.07h4.52c0.53,0,0.88,0.04,1.04,0.13
			c0.27,0.15,0.4,0.4,0.4,0.74c0,0.23-0.22,0.56-0.65,1.01l-5.77,6.06l6.51,7.56c0.39,0.47,0.59,0.81,0.59,1.03
			c0,0.32-0.11,0.54-0.32,0.67c-0.21,0.13-0.59,0.19-1.12,0.19h-4.39c-0.52,0-0.83-0.03-0.94-0.08c-0.11-0.05-0.33-0.27-0.67-0.65
			l-1.94-2.2c-1.34-1.53-2.73-3.27-4.16-5.22l-0.85,6.82c-0.08,0.59-0.2,0.97-0.36,1.12c-0.17,0.14-0.54,0.21-1.14,0.21H82.6
			c-0.6,0-0.98-0.06-1.14-0.19c-0.2-0.18-0.3-0.41-0.3-0.68c0-0.1,0.02-0.33,0.06-0.68l3.15-25.46c0.08-0.61,0.19-0.98,0.35-1.12
			c0.16-0.14,0.55-0.21,1.17-0.21h3.49c0.58,0,0.96,0.06,1.12,0.19c0.2,0.18,0.3,0.41,0.3,0.68c0,0.11-0.02,0.34-0.06,0.68
			L88.8,38.8z"/>
		<path fill="currentColor" d="M109.77,42.58c0,1.19,0.21,2.03,0.65,2.51c0.56,0.59,1.37,0.89,2.43,0.89c0.53,0,1.01-0.11,1.42-0.33
			c0.42-0.22,0.69-0.51,0.82-0.86c0.08-0.25,0.2-0.42,0.37-0.48s0.51-0.1,1.02-0.1h3.8c0.51,0,0.84,0.04,1.01,0.11
			c0.3,0.13,0.46,0.36,0.46,0.7c0,0.35-0.19,0.85-0.58,1.48c-0.39,0.63-0.82,1.16-1.3,1.59c-1.75,1.59-4.13,2.39-7.16,2.39
			c-2.72,0-4.84-0.67-6.36-2.01c-0.83-0.73-1.49-1.67-1.96-2.81c-0.47-1.14-0.7-2.36-0.7-3.67c0-2.8,0.91-5.15,2.73-7.04
			c1.82-1.91,4.33-2.87,7.52-2.87c3.04,0,5.33,0.91,6.87,2.72c1.35,1.58,2.03,3.72,2.03,6.42c0,0.59-0.09,0.97-0.26,1.13
			s-0.58,0.24-1.22,0.24H109.77z M116.28,38.95c-0.05-0.65-0.19-1.15-0.42-1.5c-0.53-0.78-1.35-1.18-2.45-1.18
			c-1.75,0-2.82,0.89-3.21,2.68H116.28z"/>
		<path fill="currentColor" d="M134.15,37.51l-1.37,11.11c-0.08,0.62-0.19,1-0.35,1.14c-0.16,0.14-0.54,0.21-1.15,0.21h-3.51c-0.6,0-0.97-0.06-1.12-0.19
			c-0.2-0.18-0.3-0.41-0.3-0.68c0-0.11,0.02-0.34,0.06-0.68l1.35-10.9h-1.18c-0.61,0-0.99-0.06-1.14-0.19
			c-0.2-0.18-0.3-0.41-0.3-0.68c0-0.11,0.02-0.34,0.06-0.66l0.27-2.05c0.08-0.61,0.19-0.98,0.34-1.12c0.15-0.14,0.54-0.21,1.16-0.21
			h1.41l0.51-4.23c0.08-0.61,0.19-0.98,0.35-1.12c0.16-0.14,0.55-0.21,1.17-0.21h3.49c0.59,0,0.97,0.06,1.12,0.19
			c0.21,0.18,0.32,0.41,0.32,0.68c0,0.11-0.03,0.34-0.08,0.66l-0.49,4.03h1.86c0.59,0,0.97,0.06,1.14,0.19
			c0.2,0.18,0.3,0.41,0.3,0.68c0,0.1-0.03,0.32-0.08,0.66l-0.25,2.05c-0.08,0.6-0.2,0.96-0.36,1.1c-0.17,0.15-0.54,0.23-1.14,0.23
			H134.15z"/>
		<path fill="currentColor" d="M146.76,34.14l-1.8,14.49c-0.06,0.61-0.17,0.98-0.33,1.12c-0.16,0.14-0.55,0.21-1.17,0.21h-3.49
			c-0.6,0-0.98-0.06-1.14-0.19c-0.2-0.18-0.3-0.4-0.3-0.67c0-0.11,0.02-0.35,0.06-0.7l1.8-14.49c0.08-0.61,0.19-0.98,0.35-1.12
			c0.16-0.14,0.54-0.21,1.15-0.21h3.51c0.58,0,0.96,0.06,1.12,0.19c0.2,0.18,0.3,0.41,0.3,0.68
			C146.82,33.56,146.8,33.79,146.76,34.14z M144.67,22.22c0.99,0,1.84,0.34,2.54,1.03c0.77,0.75,1.16,1.67,1.16,2.77
			c0,1.06-0.37,1.97-1.1,2.72s-1.62,1.12-2.66,1.12c-1.15,0-2.1-0.42-2.83-1.25c-0.67-0.76-1.01-1.63-1.01-2.6
			c0-1.04,0.36-1.91,1.08-2.62C142.66,22.61,143.59,22.22,144.67,22.22z"/>
		<path fill="currentColor" d="M157.49,34.85c0.92-0.82,1.7-1.41,2.32-1.77c1.22-0.67,2.55-1.01,4.01-1.01c2.21,0,3.78,0.73,4.69,2.18
			c0.52,0.84,0.78,1.87,0.78,3.11c0,0.67-0.08,1.61-0.23,2.81l-1.03,8.45c-0.08,0.61-0.19,0.98-0.35,1.12
			c-0.16,0.14-0.55,0.21-1.17,0.21h-3.49c-0.59,0-0.97-0.06-1.12-0.19c-0.2-0.18-0.3-0.41-0.3-0.68c0-0.14,0.02-0.37,0.06-0.68
			l0.74-6.1c0.11-0.89,0.17-1.6,0.17-2.15c0-1.84-0.78-2.75-2.34-2.75c-1.03,0-1.81,0.37-2.35,1.12c-0.47,0.63-0.81,1.83-1.03,3.59
			l-0.8,6.51c-0.09,0.59-0.21,0.97-0.36,1.12c-0.17,0.14-0.55,0.21-1.16,0.21h-3.49c-0.6,0-0.98-0.06-1.14-0.19
			c-0.2-0.18-0.3-0.4-0.3-0.67c0-0.11,0.02-0.35,0.06-0.7l1.8-14.49c0.08-0.61,0.19-0.98,0.35-1.12c0.16-0.14,0.54-0.21,1.15-0.21
			h3.38c0.56,0,0.94,0.06,1.14,0.18c0.2,0.12,0.3,0.34,0.3,0.65c0,0.11-0.04,0.38-0.13,0.8L157.49,34.85z"/>
		<path fill="currentColor" d="M185.38,48.16c-0.79,0.73-1.44,1.25-1.97,1.56c-0.92,0.51-1.97,0.76-3.13,0.76c-1.08,0-2.12-0.21-3.13-0.64
			c-1.01-0.42-1.85-1-2.51-1.74c-1.34-1.48-2.01-3.56-2.01-6.25c0-2.86,0.8-5.18,2.39-6.97c1.68-1.87,3.8-2.81,6.34-2.81
			c1.25,0,2.33,0.23,3.23,0.68c0.9,0.46,1.8,1.23,2.7,2.34l0.04-1.1c0.03-0.62,0.12-1.01,0.29-1.16c0.16-0.16,0.56-0.25,1.18-0.25
			h3.44c0.59,0,0.97,0.06,1.12,0.19c0.22,0.18,0.32,0.41,0.32,0.68c0,0.09-0.03,0.31-0.08,0.66l-1.79,14.55
			c-0.44,3.62-1.13,6.13-2.07,7.54c-0.87,1.29-2.02,2.22-3.44,2.77c-1.41,0.56-3.17,0.84-5.28,0.84c-4.32,0-7.13-1.36-8.45-4.08
			c-0.46-0.94-0.68-1.76-0.68-2.47c0-0.34,0.1-0.57,0.3-0.69c0.2-0.12,0.58-0.18,1.14-0.18h3.23c0.52,0,0.86,0.04,1.02,0.11
			c0.16,0.08,0.29,0.27,0.41,0.59c0.19,0.49,0.57,0.9,1.15,1.21s1.24,0.47,1.98,0.47c1.2,0,2.12-0.32,2.74-0.95
			c0.63-0.63,1.03-1.64,1.21-3.02L185.38,48.16z M182.99,37.13c-1.33,0-2.35,0.56-3.08,1.67c-0.51,0.79-0.76,1.71-0.76,2.77
			c0,1.09,0.29,1.98,0.85,2.68c0.65,0.79,1.53,1.18,2.64,1.18c1.25,0,2.2-0.48,2.85-1.44c0.59-0.89,0.89-1.96,0.89-3.23
			c0-1.25-0.37-2.2-1.1-2.83C184.67,37.39,183.9,37.13,182.99,37.13z"/>
	</g>
</g>
</svg>
